<?xml version="1.0" encoding="UTF-8" standalone="no"?>
<svg width="173px" height="25px" viewBox="0 0 173 25" version="1.1" xmlns="http://www.w3.org/2000/svg" xmlns:xlink="http://www.w3.org/1999/xlink">
    <!-- Generator: Sketch 3.7.1 (28215) - http://www.bohemiancoding.com/sketch -->
    <title>logo</title>
    <desc>Created with Sketch.</desc>
    <defs></defs>
    <g id="Page-1" stroke="none" stroke-width="1" fill="none" fill-rule="evenodd" opacity="0.5">
        <g id="Index" transform="translate(-682.000000, -774.000000)" fill="#FFFFFF">
            <g id="Group-2" transform="translate(682.000000, 694.000000)">
                <g id="logo" transform="translate(0.000000, 80.000000)">
                    <g id="Layer_1">
                        <g id="Group" transform="translate(33.269231, 0.833333)">
                            <polygon id="Shape" points="14.1635433 22.6683333 14.1635433 10.9533333 10.4665 22.6683333 7.81161538 22.6683333 4.17778365 10.985 4.17778365 22.6683333 0.701980769 22.6683333 0.701980769 0.505 4.17778365 0.505 9.13905769 15.1633333 14.1635433 0.505 17.6393462 0.505 17.6393462 22.6683333"></polygon>
                            <path d="M34.0760096,22.6683333 C29.0506923,23.1433333 21.9094519,24.0925 21.9094519,17.3166667 L21.9094519,14.69 C21.9094519,12.4108333 22.7944135,11.1125 24.09025,10.4791667 C26.3342596,9.37083333 29.4940048,10.3841667 30.6002067,10.9858333 C30.6002067,9.24416667 28.7986779,8.95916667 27.2192212,8.95916667 L27.5036731,6.5525 C34.0768413,6.5525 34.0768413,10.1941667 34.0768413,13.2333333 L34.0768413,22.6683333 L34.0760096,22.6683333 Z M30.599375,14.6891667 C29.4299615,13.8658333 25.4168606,12.41 25.4168606,15.1316667 L25.4168606,16.8733333 C25.4168606,18.9308333 26.7759087,20.26 30.599375,19.5966667 L30.599375,14.6891667 L30.599375,14.6891667 Z" id="Shape"></path>
                            <path d="M48.0449279,22.4775 C45.8009183,23.08 43.3365,23.2066667 41.4085481,22.6041667 C38.9133558,21.7808333 37.8703654,20.1658333 37.8703654,16.9675 L37.8703654,12.915 C37.8703654,6.74166667 43.0836538,5.25333333 47.9825481,7.53333333 L47.034375,10.5408333 C43.2741202,9.0525 41.3453365,10.5725 41.3453365,12.7258333 L41.3453365,17.315 C41.3453365,20.355 45.9913846,19.5316667 47.0975865,19.0566667 L48.0449279,22.4775 L48.0449279,22.4775 Z" id="Shape"></path>
                            <path d="M54.6829712,16.4941667 C54.871774,18.33 56.2308221,19.5966667 58.3800144,19.5966667 C61.2237019,19.5966667 62.1402692,17.9183333 62.1402692,16.8425 C62.1402692,10.6366667 51.4907885,12.8208333 51.4907885,5.66583333 C51.4907885,3.00583333 53.7339663,0.188333333 58.6320288,0.188333333 C60.8128269,0.188333333 61.9814087,0.536666667 63.2464712,1.13833333 C63.2464712,1.17 62.5195385,3.29166667 62.1402692,4.43166667 C60.9716875,4.05166667 60.0226827,3.735 58.6644663,3.735 C56.104399,3.735 55.1246202,4.78 55.2510433,5.98333333 C55.5987067,9.055 65.9637356,8.95916667 65.9637356,16.5258333 C65.9637356,19.9766667 63.8145433,23.0166667 58.4107885,23.0166667 C53.512726,23.0166667 51.047476,19.8508333 50.9526587,17.0316667 L54.6829712,16.4941667 L54.6829712,16.4941667 Z" id="Shape"></path>
                            <path d="M74.2145048,23.08 C70.45425,23.0166667 69.4112596,20.9575 69.4112596,18.4883333 L69.4112596,0.505 L72.9511058,0.505 L72.9511058,6.80583333 L75.9528221,6.80583333 L75.1942837,10.0675 L72.9511058,10.0675 L72.9511058,18.4883333 C72.9511058,20.0391667 73.9940962,20.2933333 75.2574952,20.2933333 L74.2145048,23.08 L74.2145048,23.08 Z" id="Shape"></path>
                            <path d="M90.3958269,16.8425 C90.3958269,20.0716667 88.7207212,22.9833333 84.5495913,22.9833333 C80.4092356,22.9833333 78.6085385,20.0716667 78.6085385,16.8425 L78.6085385,12.6633333 C78.6085385,8.67333333 80.7252933,6.4575 84.5495913,6.4575 C88.2150288,6.4575 90.3958269,8.8325 90.3958269,12.6633333 L90.3958269,16.8425 L90.3958269,16.8425 Z M86.9507981,12.6633333 C86.9507981,10.0983333 85.4653269,9.97166667 84.5487596,9.97166667 C83.4741635,9.97166667 82.0843413,10.3516667 82.0843413,12.6633333 L82.0843413,17.1583333 C82.0843413,18.9941667 83.2529231,19.5641667 84.5487596,19.5641667 C85.8445962,19.5641667 86.9507981,18.8691667 86.9507981,17.1583333 L86.9507981,12.6633333 L86.9507981,12.6633333 Z" id="Shape"></path>
                            <path d="M94.4105913,22.6683333 L94.4105913,6.80583333 L97.6343798,6.80583333 L97.8863942,6.9325 C100.098798,6.1725 101.583437,6.58416667 103.258543,6.9325 L102.437625,10.32 C100.320038,9.24333333 97.8863942,10.2566667 97.8863942,12.4733333 L97.8863942,22.6675 L94.4105913,22.6675 L94.4105913,22.6683333 Z" id="Shape"></path>
                            <path d="M105.977471,2.025 C105.977471,1.04333333 106.862433,0.188333333 107.872986,0.188333333 C108.852764,0.188333333 109.70612,1.04333333 109.70612,2.025 C109.70612,3.03833333 108.852764,3.925 107.872986,3.925 C106.862433,3.92416667 105.977471,3.03833333 105.977471,2.025 L105.977471,2.025 Z M106.040683,22.6683333 L106.040683,6.80583333 L109.517317,6.80583333 L109.517317,22.6683333 L106.040683,22.6683333 L106.040683,22.6683333 Z" id="Shape"></path>
                            <path d="M117.165082,17.0641667 L117.165082,17.9491667 C117.165082,20.0083333 119.157077,20.5775 122.979712,18.5516667 L124.244774,21.5591667 C122.758471,22.4775 120.831351,23.0158333 119.029822,23.0466667 C115.900851,23.1425 113.657673,21.7166667 113.657673,18.4241667 L113.657673,11.9341667 C113.657673,8.45083333 116.028106,6.52 119.471471,6.52 C122.979712,6.52 125.034087,8.515 125.034087,11.8391667 L125.034087,16.6516667 L117.165082,17.0641667 L117.165082,17.0641667 Z M121.526678,11.9033333 C121.526678,10.5733333 120.546899,9.94 119.440697,9.94 C117.670774,9.94 117.165082,11.175 117.165082,11.9666667 L117.165082,13.8658333 L121.526678,13.5816667 L121.526678,11.9033333 L121.526678,11.9033333 Z" id="Shape"></path>
                            <path d="M131.514101,18.2983333 C131.514101,18.87 132.083005,19.8816667 133.884534,19.8816667 C135.400779,19.8816667 136.0645,18.9633333 136.0645,18.14 C136.0645,14.8166667 128.954034,16.5891667 128.417567,11.1116667 C128.227933,9.11666667 129.649361,6.42583333 133.821322,6.42583333 C136.0645,6.42583333 137.361168,7.34416667 137.361168,7.34416667 L136.348952,10.5733333 C136.348952,10.5733333 135.622851,9.845 133.821322,9.845 C131.862596,9.845 132.083005,10.795 132.17699,11.175 C132.587865,13.0116667 139.730769,12.5041667 139.730769,18.2033333 C139.730769,20.6725 137.992452,23.1433333 133.884534,23.1433333 C130.124279,23.1433333 128.132284,21.0208333 128.038298,18.6466667 L131.514101,18.2983333 L131.514101,18.2983333 Z" id="Shape"></path>
                        </g>
                        <path d="M12.4759615,0 C5.58590385,0 0,5.59666667 0,12.5 C0,19.40375 5.58590385,25 12.4759615,25 C19.3664351,25 24.9519231,19.40375 24.9519231,12.5 C24.9519231,5.59666667 19.3664351,0 12.4759615,0 L12.4759615,0 Z M18.2980769,20.2083333 C18.2980769,20.3233333 18.2049231,20.4166667 18.0901442,20.4166667 C18.0901442,20.4166667 13.0997596,17.0833333 12.4759615,17.0833333 C11.8521635,17.0833333 6.86177885,20.4166667 6.86177885,20.4166667 C6.747,20.4166667 6.65384615,20.3233333 6.65384615,20.2083333 L6.65384615,4.79166667 C6.65384615,4.67666667 6.747,4.58333333 6.86177885,4.58333333 L18.0901442,4.58333333 C18.2049231,4.58333333 18.2980769,4.67666667 18.2980769,4.79166667 L18.2980769,20.2083333 L18.2980769,20.2083333 Z" id="Shape"></path>
                    </g>
                </g>
            </g>
        </g>
    </g>
</svg>